<svg width="1616" height="526" viewBox="0 0 1616 526" fill="none" xmlns="http://www.w3.org/2000/svg">
<g clip-path="url(#clip0_135_22)">
<path d="M0 0H1353C1498.25 0 1616 117.749 1616 263V263C1616 408.251 1498.25 526 1353 526H0V0Z" fill="url(#paint0_linear_135_22)"/>
<path d="M-215.348 -1163.96C-17.9133 -552.735 -7.63787 -471.797 -174.321 -211.562C-257.261 -72.8156 -404.033 255.637 -243.466 483.224C-82.8987 710.811 -100.46 1178.98 -129.37 1387.45" stroke="#6D6D6D" stroke-width="0.5"/>
<path d="M-234.703 -1107.13C-0.329142 -508.563 8.08594 -427.99 -135.621 -158.807C-202.741 -11.978 -336.158 326.739 -161.998 544.504C12.1611 762.269 22.9764 1224.96 6.84565 1434.77" stroke="#6D6D6D" stroke-width="0.5"/>
<path d="M-253.658 -1050.64C16.815 -466.876 23.3864 -386.161 -96.8764 -109.793C-147.514 43.7488 -266.824 392.334 -79.6972 599.496C107.43 806.658 145.889 1262.24 142.595 1472.63" stroke="#6D6D6D" stroke-width="0.5"/>
<path d="M-272.244 -994.509C33.3591 -427.641 38.1587 -346.281 -58.3241 -64.5105C-91.9293 94.3245 -196.383 452.327 3.04076 648.145C202.465 843.962 267.739 1290.88 277.293 1501.09" stroke="#6D6D6D" stroke-width="0.5"/>
<path d="M-290.492 -938.753C49.1447 -390.813 52.2989 -308.315 -20.2018 -22.9383C-36.338 139.732 -125.192 506.649 85.8143 690.42C296.82 874.191 387.99 1310.94 410.358 1520.22" stroke="#6D6D6D" stroke-width="0.5"/>
<path d="M-308.435 -883.385C64.0179 -356.336 65.7067 -272.222 17.2567 14.9628C18.9079 179.981 -53.61 555.251 168.221 726.317C390.053 897.384 506.113 1322.55 541.215 1530.15" stroke="#6D6D6D" stroke-width="0.5"/>
<path d="M-326.106 -828.415C77.8283 -324.147 78.2838 -237.954 53.8199 49.2445C73.4578 215.099 17.9978 598.109 249.859 755.858C481.721 913.606 621.588 1325.85 669.298 1531.03" stroke="#6D6D6D" stroke-width="0.5"/>
<path d="M-343.537 -773.85C90.4294 -294.171 89.9343 -205.461 89.2595 79.9744C126.962 245.142 89.2648 635.221 330.325 779.086C571.386 922.952 733.904 1321.02 794.051 1523.04" stroke="#6D6D6D" stroke-width="0.5"/>
<path d="M-360.764 -719.695C101.68 -266.325 100.565 -174.688 123.353 107.232C179.077 270.183 159.825 666.604 409.22 796.071C658.616 925.538 842.562 1308.27 914.93 1506.4" stroke="#6D6D6D" stroke-width="0.5"/>
<path d="M-377.815 -665.956C111.448 -240.519 110.092 -145.574 155.886 131.109C229.465 290.321 229.316 692.299 486.152 806.903C742.989 921.508 947.081 1287.83 1031.41 1481.37" stroke="#6D6D6D" stroke-width="0.5"/>
<path d="M-394.722 -612.63C119.607 -216.651 118.429 -118.054 186.649 151.715C277.797 305.675 297.377 712.372 560.733 811.704C824.09 911.037 1046.99 1259.97 1142.98 1448.23" stroke="#6D6D6D" stroke-width="0.5"/>
<path d="M-411.516 -559.717C126.033 -194.616 125.495 -92.0593 215.44 169.167C323.749 316.386 363.648 726.909 632.581 810.613C901.514 894.316 1141.85 1224.99 1249.15 1407.28" stroke="#6D6D6D" stroke-width="0.5"/>
<path d="M-428.228 -507.214C130.616 -174.299 131.216 -67.5188 242.066 183.597C367.01 322.615 427.781 736.016 701.326 803.792C974.872 871.568 1231.22 1183.2 1349.45 1358.87" stroke="#6D6D6D" stroke-width="0.5"/>
<path d="M-444.885 -455.113C133.25 -155.578 135.519 -44.3551 266.343 195.147C407.28 324.545 489.43 739.826 766.607 791.431C1043.78 843.036 1314.69 1134.94 1443.43 1303.37" stroke="#6D6D6D" stroke-width="0.5"/>
<path d="M-461.514 -403.408C133.84 -138.326 138.341 -22.4912 288.098 203.969C444.273 322.375 548.261 738.486 828.076 773.735C1107.89 808.984 1391.88 1080.59 1530.67 1241.16" stroke="#6D6D6D" stroke-width="0.5"/>
<path d="M-478.141 -352.09C132.297 -122.412 139.617 -1.84421 307.167 210.227C477.715 316.323 603.946 732.167 885.397 750.935C1166.85 769.703 1462.43 1020.53 1610.76 1172.67" stroke="#6D6D6D" stroke-width="0.5"/>
<path d="M-494.791 -301.149C128.543 -107.697 139.291 17.669 323.398 214.092C507.347 306.626 656.171 721.06 938.249 723.279C1220.33 725.498 1526 955.168 1683.34 1098.34" stroke="#6D6D6D" stroke-width="0.5"/>
<path d="M-511.484 -250.573C122.51 -94.0409 137.312 36.1342 336.651 215.744C532.931 293.534 704.636 705.373 986.33 691.036C1268.02 676.698 1582.28 884.938 1748.07 1018.62" stroke="#6D6D6D" stroke-width="0.5"/>
<path d="M-528.243 -200.349C114.14 -81.2983 133.633 53.6399 346.798 215.371C554.242 277.314 749.05 685.333 1029.35 654.491C1309.65 623.649 1630.98 810.285 1804.63 934.003" stroke="#6D6D6D" stroke-width="0.5"/>
<path d="M-545.086 -150.464C103.383 -69.321 128.213 70.2757 353.722 213.17C571.076 258.246 789.14 661.186 1067.04 613.95C1344.94 566.714 1671.86 731.669 1852.75 844.978" stroke="#6D6D6D" stroke-width="0.5"/>
<path d="M-562.034 -100.906C90.1962 -57.9607 121.012 86.1305 357.32 209.338C583.243 236.623 824.645 633.189 1099.15 569.729C1373.66 506.269 1704.69 649.565 1892.16 752.058" stroke="#6D6D6D" stroke-width="0.5"/>
<path d="M-579.1 -51.657C74.553 -47.0638 112.001 101.298 357.503 204.084C590.579 212.75 855.324 601.622 1125.45 522.165C1395.58 442.708 1729.27 564.459 1922.65 655.769" stroke="#6D6D6D" stroke-width="0.5"/>
<path d="M-596.301 -2.70449C56.4321 -36.4797 101.151 115.868 354.193 197.616C592.938 186.938 880.952 566.772 1145.73 471.604C1410.52 376.435 1745.44 476.848 1944.03 556.647" stroke="#6D6D6D" stroke-width="0.5"/>
<path d="M-613.649 45.9679C35.8243 -26.0545 88.4397 129.936 347.327 190.151C590.196 159.513 901.323 528.944 1159.81 418.406C1418.3 307.867 1753.06 387.238 1956.17 455.239" stroke="#6D6D6D" stroke-width="0.5"/>
<path d="M-631.157 94.3757C12.7283 -15.6356 73.8497 143.593 336.856 181.904C582.249 130.803 916.247 488.455 1167.51 362.943C1418.78 237.43 1752.04 296.139 1958.92 352.1" stroke="#6D6D6D" stroke-width="0.5"/>
<path d="M-648.835 142.533C-12.8463 -5.07247 57.3677 156.932 322.744 173.092C569.015 101.144 925.558 445.629 1168.7 305.593C1411.85 165.557 1742.3 204.067 1952.22 247.785" stroke="#6D6D6D" stroke-width="0.5"/>
<path d="M-666.693 190.457C-40.8804 5.78641 38.9852 170.046 304.969 163.938C550.438 70.8774 929.108 400.805 1163.26 246.747C1397.41 92.6896 1723.81 111.54 1936.01 142.86" stroke="#6D6D6D" stroke-width="0.5"/>
<path d="M-684.738 238.162C-71.3453 17.0886 18.6987 183.029 283.521 154.659C526.48 40.3455 926.772 354.327 1151.09 186.8C1375.41 19.2735 1696.56 19.0774 1910.29 37.8872" stroke="#6D6D6D" stroke-width="0.5"/>
<path d="M-702.981 285.664C-104.206 28.9796 -3.49388 195.97 258.406 145.477C497.126 9.89349 918.441 306.549 1132.12 126.153C1345.81 -54.2423 1660.58 -72.8034 1875.06 -66.5717" stroke="#6D6D6D" stroke-width="0.5"/>
<path d="M-721.424 332.977C-139.414 41.6035 -27.5866 208.963 229.642 136.609C462.388 -20.1316 904.035 257.829 1106.32 65.2121C1308.6 -127.405 1615.92 -163.586 1830.39 -169.955" stroke="#6D6D6D" stroke-width="0.5"/>
<path d="M-740.075 380.117C-176.916 55.0978 -53.572 222.098 197.26 128.272C422.296 -49.387 883.491 208.532 1073.64 4.38308C1263.8 -199.766 1562.67 -252.763 1776.36 -271.709" stroke="#6D6D6D" stroke-width="0.5"/>
<path d="M-758.937 427.1C-216.647 69.6004 -81.436 235.465 161.307 120.68C376.906 -77.528 856.772 159.026 1034.12 -55.9221C1211.46 -270.87 1500.96 -339.827 1713.09 -371.283" stroke="#6D6D6D" stroke-width="0.5"/>
<path d="M-778.014 473.938C-258.538 85.2401 -111.164 249.152 121.838 114.043C326.293 -104.218 823.861 109.68 987.763 -115.297C1151.67 -340.274 1430.92 -424.286 1640.75 -468.139" stroke="#6D6D6D" stroke-width="0.5"/>
<path d="M-797.309 520.646C-302.509 102.143 -142.734 263.247 78.9251 108.566C270.558 -129.125 784.765 60.8646 934.637 -173.335C1084.51 -407.534 1352.75 -505.655 1559.51 -561.747" stroke="#6D6D6D" stroke-width="0.5"/>
<path d="M-816.824 567.239C-348.473 120.431 -176.122 277.837 32.6512 104.451C209.82 -151.92 739.516 12.9523 874.821 -229.63C1010.13 -472.212 1266.65 -583.459 1469.61 -651.589" stroke="#6D6D6D" stroke-width="0.5"/>
<path d="M-836.56 613.73C-396.336 140.22 -211.301 293.006 -16.8898 101.894C144.222 -172.286 688.166 -33.6886 808.418 -283.784C928.67 -533.879 1172.86 -657.238 1371.29 -737.162" stroke="#6D6D6D" stroke-width="0.5"/>
<path d="M-856.517 660.132C-446 161.616 -248.238 308.838 -69.5915 101.083C73.9267 -189.913 630.79 -78.6937 735.559 -335.406C840.328 -592.118 1071.64 -726.55 1264.82 -817.982" stroke="#6D6D6D" stroke-width="0.5"/>
<path d="M-876.696 706.459C-497.357 184.726 -286.899 325.417 -125.337 102.202C-0.884154 -204.501 567.486 -121.698 656.397 -384.107C745.308 -646.516 963.284 -790.964 1150.53 -893.575" stroke="#6D6D6D" stroke-width="0.5"/>
<path d="M-897.094 752.723C-550.292 209.641 -327.243 342.82 -183.995 105.424C-80.0055 -215.765 498.378 -162.349 571.112 -429.514C643.847 -696.679 848.113 -850.073 1028.76 -963.495" stroke="#6D6D6D" stroke-width="0.5"/>
<path d="M-917.713 798.937C-604.692 236.454 -369.23 361.127 -245.431 110.917C-163.22 -223.43 423.605 -200.296 479.902 -471.26C536.2 -742.223 726.464 -903.485 899.851 -1027.31" stroke="#6D6D6D" stroke-width="0.5"/>
<path d="M-938.549 845.113C-660.43 265.246 -412.812 380.416 -309.494 118.839C-250.285 -227.233 343.336 -235.198 382.994 -508.989C422.653 -782.779 598.703 -950.829 764.213 -1084.62" stroke="#6D6D6D" stroke-width="0.5"/>
<path d="M-959.601 891.262C-717.381 296.089 -457.942 400.759 -376.03 129.338C-340.949 -226.934 257.752 -266.726 280.63 -542.363C303.508 -817.999 465.213 -991.763 622.253 -1135.03" stroke="#6D6D6D" stroke-width="0.5"/>
<path d="M-980.866 937.396C-775.413 329.051 -504.566 422.231 -444.869 142.555C-434.937 -222.299 167.063 -294.557 173.079 -571.052C179.095 -847.546 326.403 -1025.96 474.409 -1178.19" stroke="#6D6D6D" stroke-width="0.5"/>
<path d="M-1002.34 983.527C-834.39 364.191 -552.628 444.9 -515.84 158.618C-531.964 -213.119 71.4932 -318.385 60.6259 -594.746C49.7586 -871.108 182.696 -1053.12 321.138 -1213.77" stroke="#6D6D6D" stroke-width="0.5"/>
<path d="M-1024.02 1029.66C-894.174 401.556 -602.07 468.835 -588.761 177.644C-631.73 -199.2 -28.7107 -337.915 -56.4222 -613.153C-84.1337 -888.391 34.5345 -1072.97 162.916 -1241.47" stroke="#6D6D6D" stroke-width="0.5"/>
<path d="M-1043.2 1076.95C-951.927 442.326 -650.132 495.237 -660.745 200.879C-731.223 -179.232 -130.587 -351.731 -175.043 -624.859C-219.499 -897.987 -114.925 -1084.13 2.93521 -1259.87" stroke="#6D6D6D" stroke-width="0.5"/>
</g>
<defs>
<linearGradient id="paint0_linear_135_22" x1="1519.84" y1="14.7477" x2="31.7395" y2="605.898" gradientUnits="userSpaceOnUse">
<stop stop-color="#3F3F3F"/>
<stop offset="1" stop-color="#676767"/>
</linearGradient>
<clipPath id="clip0_135_22">
<path d="M0 0H1353C1498.25 0 1616 117.749 1616 263V263C1616 408.251 1498.25 526 1353 526H0V0Z" fill="white"/>
</clipPath>
</defs>
</svg>
